<svg width="20" height="20" viewBox="0 0 20 20" fill="none" xmlns="http://www.w3.org/2000/svg">
<path d="M10 8.20203L7.303 10L10 11.798L12.697 10L10 8.20203ZM14.5 8.79803L17.197 7.00003L11 2.86903V6.46503L14.5 8.79803ZM18 8.86803L16.303 10L18 11.131V8.87003V8.86803ZM14.5 11.202L11 13.535V17.131L17.197 13L14.5 11.202ZM9 6.46503V2.86903L2.803 7.00003L5.5 8.79803L9 6.46503ZM2.803 13L9 17.131V13.535L5.5 11.202L2.803 13ZM3.697 10L2 8.86903V11.131L3.697 10ZM1.11994e-08 7.00003C-2.46193e-05 6.83544 0.0405779 6.67338 0.118205 6.52824C0.195832 6.38311 0.308084 6.25938 0.445 6.16803L9.445 0.168028C9.60933 0.0583885 9.80245 -0.00012207 10 -0.00012207C10.1975 -0.00012207 10.3907 0.0583885 10.555 0.168028L19.555 6.16803C19.6919 6.25938 19.8042 6.38311 19.8818 6.52824C19.9594 6.67338 20 6.83544 20 7.00003V13C20 13.1646 19.9594 13.3267 19.8818 13.4718C19.8042 13.6169 19.6919 13.7407 19.555 13.832L10.555 19.832C10.3907 19.9417 10.1975 20.0002 10 20.0002C9.80245 20.0002 9.60933 19.9417 9.445 19.832L0.445 13.832C0.308084 13.7407 0.195832 13.6169 0.118205 13.4718C0.0405779 13.3267 -2.46193e-05 13.1646 1.11994e-08 13V7.00003Z" fill="#1F2937"/>
</svg>
