<svg width="912" height="174" viewBox="0 0 912 174" fill="none" xmlns="http://www.w3.org/2000/svg">
<path d="M5.346 21.216C4.422 21.216 3.618 21.048 2.934 20.712C2.25 20.376 1.722 19.908 1.35 19.308C0.978 18.708 0.792 18.012 0.792 17.22H2.376C2.376 17.712 2.49 18.168 2.718 18.588C2.946 18.996 3.276 19.326 3.708 19.578C4.152 19.818 4.698 19.938 5.346 19.938C6.198 19.938 6.858 19.734 7.326 19.326C7.794 18.918 8.028 18.408 8.028 17.796C8.028 17.292 7.92 16.89 7.704 16.59C7.488 16.278 7.194 16.026 6.822 15.834C6.462 15.642 6.042 15.474 5.562 15.33C5.094 15.186 4.602 15.024 4.086 14.844C3.114 14.508 2.394 14.094 1.926 13.602C1.458 13.098 1.224 12.444 1.224 11.64C1.212 10.968 1.368 10.374 1.692 9.858C2.016 9.33 2.472 8.922 3.06 8.634C3.66 8.334 4.368 8.184 5.184 8.184C5.988 8.184 6.684 8.334 7.272 8.634C7.872 8.934 8.334 9.348 8.658 9.876C8.994 10.404 9.168 11.004 9.18 11.676H7.596C7.596 11.328 7.506 10.986 7.326 10.65C7.146 10.302 6.87 10.02 6.498 9.804C6.138 9.588 5.682 9.48 5.13 9.48C4.446 9.468 3.882 9.642 3.438 10.002C3.006 10.362 2.79 10.86 2.79 11.496C2.79 12.036 2.94 12.45 3.24 12.738C3.552 13.026 3.984 13.266 4.536 13.458C5.088 13.638 5.724 13.848 6.444 14.088C7.044 14.304 7.584 14.556 8.064 14.844C8.544 15.132 8.916 15.504 9.18 15.96C9.456 16.416 9.594 16.998 9.594 17.706C9.594 18.306 9.438 18.876 9.126 19.416C8.814 19.944 8.34 20.376 7.704 20.712C7.08 21.048 6.294 21.216 5.346 21.216ZM17.2823 21.216C16.0462 21.216 14.9602 20.946 14.0242 20.406C13.1002 19.854 12.3742 19.086 11.8462 18.102C11.3302 17.118 11.0722 15.984 11.0722 14.7C11.0722 13.416 11.3302 12.288 11.8462 11.316C12.3742 10.332 13.1002 9.564 14.0242 9.012C14.9602 8.46 16.0462 8.184 17.2823 8.184C18.5303 8.184 19.6163 8.46 20.5402 9.012C21.4763 9.564 22.2023 10.332 22.7182 11.316C23.2343 12.288 23.4923 13.416 23.4923 14.7C23.4923 15.984 23.2343 17.118 22.7182 18.102C22.2023 19.086 21.4763 19.854 20.5402 20.406C19.6163 20.946 18.5303 21.216 17.2823 21.216ZM17.2823 19.884C18.2062 19.884 19.0162 19.68 19.7122 19.272C20.4203 18.852 20.9663 18.258 21.3503 17.49C21.7463 16.71 21.9443 15.78 21.9443 14.7C21.9443 13.62 21.7463 12.696 21.3503 11.928C20.9663 11.16 20.4203 10.572 19.7122 10.164C19.0162 9.744 18.2062 9.534 17.2823 9.534C16.3583 9.534 15.5423 9.744 14.8342 10.164C14.1382 10.572 13.5922 11.16 13.1962 11.928C12.8122 12.696 12.6202 13.62 12.6202 14.7C12.6202 15.78 12.8122 16.71 13.1962 17.49C13.5922 18.258 14.1382 18.852 14.8342 19.272C15.5423 19.68 16.3583 19.884 17.2823 19.884ZM31.0195 21.216C29.7835 21.216 28.7155 20.946 27.8155 20.406C26.9275 19.854 26.2375 19.092 25.7455 18.12C25.2535 17.136 25.0075 15.996 25.0075 14.7C25.0075 13.416 25.2535 12.288 25.7455 11.316C26.2375 10.332 26.9275 9.564 27.8155 9.012C28.7155 8.46 29.7835 8.184 31.0195 8.184C32.4595 8.184 33.6295 8.532 34.5295 9.228C35.4415 9.912 36.0235 10.872 36.2755 12.108H34.6015C34.4095 11.328 34.0135 10.704 33.4135 10.236C32.8255 9.756 32.0275 9.516 31.0195 9.516C30.1195 9.516 29.3335 9.726 28.6615 10.146C27.9895 10.554 27.4675 11.148 27.0955 11.928C26.7355 12.696 26.5555 13.62 26.5555 14.7C26.5555 15.78 26.7355 16.71 27.0955 17.49C27.4675 18.258 27.9895 18.852 28.6615 19.272C29.3335 19.68 30.1195 19.884 31.0195 19.884C32.0275 19.884 32.8255 19.656 33.4135 19.2C34.0135 18.732 34.4095 18.114 34.6015 17.346H36.2755C36.0235 18.558 35.4415 19.506 34.5295 20.19C33.6295 20.874 32.4595 21.216 31.0195 21.216ZM38.2686 21V8.4H39.7806V21H38.2686ZM41.4802 21L46.1242 8.4H47.7262L52.3522 21H50.7502L49.5982 17.76H44.2342L43.0642 21H41.4802ZM44.6842 16.536H49.1482L46.9162 10.308L44.6842 16.536ZM54.0453 21V8.4H55.5573V19.794H61.4253V21H54.0453ZM66.7914 21.216C65.8674 21.216 65.0634 21.048 64.3794 20.712C63.6954 20.376 63.1674 19.908 62.7954 19.308C62.4234 18.708 62.2374 18.012 62.2374 17.22H63.8214C63.8214 17.712 63.9354 18.168 64.1634 18.588C64.3914 18.996 64.7214 19.326 65.1534 19.578C65.5974 19.818 66.1434 19.938 66.7914 19.938C67.6434 19.938 68.3034 19.734 68.7714 19.326C69.2394 18.918 69.4734 18.408 69.4734 17.796C69.4734 17.292 69.3654 16.89 69.1494 16.59C68.9334 16.278 68.6394 16.026 68.2674 15.834C67.9074 15.642 67.4874 15.474 67.0074 15.33C66.5394 15.186 66.0474 15.024 65.5314 14.844C64.5594 14.508 63.8394 14.094 63.3714 13.602C62.9034 13.098 62.6694 12.444 62.6694 11.64C62.6574 10.968 62.8134 10.374 63.1374 9.858C63.4614 9.33 63.9174 8.922 64.5054 8.634C65.1054 8.334 65.8134 8.184 66.6294 8.184C67.4334 8.184 68.1294 8.334 68.7174 8.634C69.3174 8.934 69.7794 9.348 70.1034 9.876C70.4394 10.404 70.6134 11.004 70.6254 11.676H69.0414C69.0414 11.328 68.9514 10.986 68.7714 10.65C68.5914 10.302 68.3154 10.02 67.9434 9.804C67.5834 9.588 67.1274 9.48 66.5754 9.48C65.8914 9.468 65.3274 9.642 64.8834 10.002C64.4514 10.362 64.2354 10.86 64.2354 11.496C64.2354 12.036 64.3854 12.45 64.6854 12.738C64.9974 13.026 65.4294 13.266 65.9814 13.458C66.5334 13.638 67.1694 13.848 67.8894 14.088C68.4894 14.304 69.0294 14.556 69.5094 14.844C69.9894 15.132 70.3614 15.504 70.6254 15.96C70.9014 16.416 71.0394 16.998 71.0394 17.706C71.0394 18.306 70.8834 18.876 70.5714 19.416C70.2594 19.944 69.7854 20.376 69.1494 20.712C68.5254 21.048 67.7394 21.216 66.7914 21.216Z" fill="#1F2937"/>
<rect x="0.5" y="38.5" width="443" height="55" rx="7.5" fill="white" fill-opacity="0.5"/>
<path d="M28 56C22.475 56 18 60.475 18 66C17.9989 68.0993 18.6588 70.1456 19.8862 71.8487C21.1136 73.5517 22.8461 74.8251 24.838 75.488C25.338 75.575 25.525 75.275 25.525 75.012C25.525 74.775 25.512 73.988 25.512 73.15C23 73.613 22.35 72.538 22.15 71.975C22.037 71.687 21.55 70.8 21.125 70.562C20.775 70.375 20.275 69.912 21.112 69.9C21.9 69.887 22.462 70.625 22.65 70.925C23.55 72.437 24.988 72.012 25.562 71.75C25.65 71.1 25.912 70.663 26.2 70.413C23.975 70.163 21.65 69.3 21.65 65.475C21.65 64.387 22.037 63.488 22.675 62.787C22.575 62.537 22.225 61.512 22.775 60.137C22.775 60.137 23.612 59.875 25.525 61.163C26.3391 60.9371 27.1802 60.8233 28.025 60.825C28.875 60.825 29.725 60.937 30.525 61.162C32.437 59.862 33.275 60.138 33.275 60.138C33.825 61.513 33.475 62.538 33.375 62.788C34.012 63.488 34.4 64.375 34.4 65.475C34.4 69.313 32.063 70.163 29.838 70.413C30.2 70.725 30.513 71.325 30.513 72.263C30.513 73.6 30.5 74.675 30.5 75.013C30.5 75.275 30.688 75.587 31.188 75.487C33.173 74.8168 34.8979 73.541 36.1199 71.8392C37.3419 70.1373 37.9994 68.0951 38 66C38 60.475 33.525 56 28 56Z" fill="#1F2937"/>
<path d="M64.976 74.288C63.392 74.288 62.008 73.928 60.824 73.208C59.64 72.488 58.72 71.488 58.064 70.208C57.408 68.912 57.08 67.408 57.08 65.696C57.08 63.968 57.416 62.448 58.088 61.136C58.776 59.808 59.744 58.776 60.992 58.04C62.256 57.288 63.752 56.912 65.48 56.912C67.448 56.912 69.08 57.384 70.376 58.328C71.672 59.272 72.512 60.576 72.896 62.24H69.464C69.208 61.456 68.744 60.848 68.072 60.416C67.4 59.968 66.536 59.744 65.48 59.744C63.8 59.744 62.504 60.28 61.592 61.352C60.68 62.408 60.224 63.864 60.224 65.72C60.224 67.576 60.672 69.016 61.568 70.04C62.48 71.048 63.712 71.552 65.264 71.552C66.784 71.552 67.928 71.144 68.696 70.328C69.48 69.496 69.952 68.408 70.112 67.064H65.864V64.76H73.208V74H70.376L70.136 71.792C69.592 72.592 68.912 73.208 68.096 73.64C67.28 74.072 66.24 74.288 64.976 74.288ZM77.7785 60.248C77.2185 60.248 76.7545 60.08 76.3865 59.744C76.0345 59.408 75.8585 58.984 75.8585 58.472C75.8585 57.96 76.0345 57.544 76.3865 57.224C76.7545 56.888 77.2185 56.72 77.7785 56.72C78.3385 56.72 78.7945 56.888 79.1465 57.224C79.5145 57.544 79.6985 57.96 79.6985 58.472C79.6985 58.984 79.5145 59.408 79.1465 59.744C78.7945 60.08 78.3385 60.248 77.7785 60.248ZM76.2425 74V62.096H79.3145V74H76.2425ZM87.8249 74C86.5769 74 85.5769 73.696 84.8249 73.088C84.0729 72.48 83.6969 71.4 83.6969 69.848V64.664H81.6569V62.096H83.6969L84.0569 58.904H86.7689V62.096H89.9849V64.664H86.7689V69.872C86.7689 70.448 86.8889 70.848 87.1289 71.072C87.3849 71.28 87.8169 71.384 88.4249 71.384H89.9129V74H87.8249ZM92.6225 74V56.72H95.6945V63.92C96.0945 63.264 96.6305 62.752 97.3025 62.384C97.9905 62 98.7745 61.808 99.6545 61.808C101.127 61.808 102.263 62.272 103.062 63.2C103.878 64.128 104.286 65.488 104.286 67.28V74H101.239V67.568C101.239 66.544 101.031 65.76 100.615 65.216C100.215 64.672 99.5745 64.4 98.6945 64.4C97.8305 64.4 97.1105 64.704 96.5345 65.312C95.9745 65.92 95.6945 66.768 95.6945 67.856V74H92.6225ZM111.688 74.288C110.2 74.288 109.048 73.824 108.232 72.896C107.432 71.968 107.032 70.608 107.032 68.816V62.096H110.08V68.528C110.08 69.552 110.288 70.336 110.704 70.88C111.12 71.424 111.776 71.696 112.672 71.696C113.52 71.696 114.216 71.392 114.76 70.784C115.32 70.176 115.6 69.328 115.6 68.24V62.096H118.672V74H115.96L115.72 71.984C115.352 72.688 114.816 73.248 114.112 73.664C113.424 74.08 112.616 74.288 111.688 74.288ZM128.882 74.288C127.986 74.288 127.202 74.12 126.53 73.784C125.858 73.448 125.314 72.976 124.898 72.368L124.562 74H121.826V56.72H124.898V63.8C125.282 63.272 125.786 62.808 126.41 62.408C127.05 62.008 127.874 61.808 128.882 61.808C130.002 61.808 131.002 62.08 131.882 62.624C132.762 63.168 133.458 63.912 133.97 64.856C134.482 65.8 134.738 66.872 134.738 68.072C134.738 69.272 134.482 70.344 133.97 71.288C133.458 72.216 132.762 72.952 131.882 73.496C131.002 74.024 130.002 74.288 128.882 74.288ZM128.234 71.6C129.21 71.6 130.018 71.272 130.658 70.616C131.298 69.96 131.618 69.112 131.618 68.072C131.618 67.032 131.298 66.176 130.658 65.504C130.018 64.832 129.21 64.496 128.234 64.496C127.242 64.496 126.426 64.832 125.786 65.504C125.162 66.16 124.85 67.008 124.85 68.048C124.85 69.088 125.162 69.944 125.786 70.616C126.426 71.272 127.242 71.6 128.234 71.6Z" fill="#1F2937"/>
<path d="M428.004 71.414L419.397 80.021L417.983 78.607L426.589 70H419.004V68H430.004V79H428.004V71.414V71.414Z" fill="url(#paint0_linear_136_1438)"/>
<rect x="0.5" y="38.5" width="443" height="55" rx="7.5" stroke="#E5E7EB"/>
<rect x="468.5" y="38.5" width="443" height="55" rx="7.5" fill="white" fill-opacity="0.5"/>
<path d="M502.335 72.339H499.67V68.162C499.67 67.166 499.65 65.884 498.28 65.884C496.891 65.884 496.679 66.968 496.679 68.089V72.339H494.013V63.75H496.573V64.92H496.608C496.966 64.246 497.836 63.533 499.136 63.533C501.836 63.533 502.336 65.311 502.336 67.624V72.339H502.335ZM491.003 62.575C490.8 62.5753 490.598 62.5354 490.41 62.4576C490.222 62.3798 490.051 62.2657 489.907 62.1218C489.764 61.9779 489.65 61.8071 489.572 61.619C489.494 61.431 489.455 61.2294 489.455 61.026C489.455 60.7198 489.546 60.4206 489.716 60.1661C489.887 59.9117 490.129 59.7134 490.412 59.5965C490.694 59.4795 491.006 59.449 491.306 59.5089C491.606 59.5689 491.882 59.7165 492.098 59.9331C492.315 60.1497 492.462 60.4257 492.521 60.726C492.581 61.0263 492.55 61.3375 492.433 61.6203C492.315 61.9031 492.117 62.1447 491.862 62.3147C491.608 62.4846 491.308 62.5752 491.002 62.575H491.003ZM492.339 72.339H489.666V63.75H492.34V72.339H492.339ZM503.67 57H488.329C487.593 57 487 57.58 487 58.297V73.703C487 74.42 487.594 75 488.328 75H503.666C504.4 75 505 74.42 505 73.703V58.297C505 57.58 504.4 57 503.666 57H503.669H503.67Z" fill="#1F2937"/>
<path d="M525.632 74V57.2H528.704V71.6H536.144V74H525.632ZM540.435 60.248C539.875 60.248 539.411 60.08 539.043 59.744C538.691 59.408 538.515 58.984 538.515 58.472C538.515 57.96 538.691 57.544 539.043 57.224C539.411 56.888 539.875 56.72 540.435 56.72C540.995 56.72 541.451 56.888 541.803 57.224C542.171 57.544 542.355 57.96 542.355 58.472C542.355 58.984 542.171 59.408 541.803 59.744C541.451 60.08 540.995 60.248 540.435 60.248ZM538.899 74V62.096H541.971V74H538.899ZM545.177 74V62.096H547.889L548.129 64.112C548.497 63.408 549.025 62.848 549.713 62.432C550.417 62.016 551.241 61.808 552.185 61.808C553.657 61.808 554.801 62.272 555.617 63.2C556.433 64.128 556.841 65.488 556.841 67.28V74H553.769V67.568C553.769 66.544 553.561 65.76 553.145 65.216C552.729 64.672 552.081 64.4 551.201 64.4C550.337 64.4 549.625 64.704 549.065 65.312C548.521 65.92 548.249 66.768 548.249 67.856V74H545.177ZM559.779 74V56.72H562.851V66.92L567.075 62.096H570.723L565.851 67.52L571.515 74H567.675L562.851 68.024V74H559.779ZM578.219 74.288C577.019 74.288 575.955 74.032 575.027 73.52C574.099 73.008 573.371 72.288 572.843 71.36C572.315 70.432 572.051 69.36 572.051 68.144C572.051 66.912 572.307 65.816 572.819 64.856C573.347 63.896 574.067 63.152 574.979 62.624C575.907 62.08 576.995 61.808 578.243 61.808C579.411 61.808 580.443 62.064 581.339 62.576C582.235 63.088 582.931 63.792 583.427 64.688C583.939 65.568 584.195 66.552 584.195 67.64C584.195 67.816 584.187 68 584.171 68.192C584.171 68.384 584.163 68.584 584.147 68.792H575.099C575.163 69.72 575.483 70.448 576.059 70.976C576.651 71.504 577.363 71.768 578.195 71.768C578.819 71.768 579.339 71.632 579.755 71.36C580.187 71.072 580.507 70.704 580.715 70.256H583.835C583.611 71.008 583.235 71.696 582.707 72.32C582.195 72.928 581.555 73.408 580.787 73.76C580.035 74.112 579.179 74.288 578.219 74.288ZM578.243 64.304C577.491 64.304 576.827 64.52 576.251 64.952C575.675 65.368 575.307 66.008 575.147 66.872H581.075C581.027 66.088 580.739 65.464 580.211 65C579.683 64.536 579.027 64.304 578.243 64.304ZM592.251 74.288C591.131 74.288 590.131 74.016 589.251 73.472C588.371 72.928 587.675 72.184 587.163 71.24C586.651 70.296 586.395 69.224 586.395 68.024C586.395 66.824 586.651 65.76 587.163 64.832C587.675 63.888 588.371 63.152 589.251 62.624C590.131 62.08 591.131 61.808 592.251 61.808C593.147 61.808 593.931 61.976 594.603 62.312C595.275 62.648 595.819 63.12 596.235 63.728V56.72H599.307V74H596.571L596.235 72.296C595.851 72.824 595.339 73.288 594.699 73.688C594.075 74.088 593.259 74.288 592.251 74.288ZM592.899 71.6C593.891 71.6 594.699 71.272 595.323 70.616C595.963 69.944 596.283 69.088 596.283 68.048C596.283 67.008 595.963 66.16 595.323 65.504C594.699 64.832 593.891 64.496 592.899 64.496C591.923 64.496 591.115 64.824 590.475 65.48C589.835 66.136 589.515 66.984 589.515 68.024C589.515 69.064 589.835 69.92 590.475 70.592C591.115 71.264 591.923 71.6 592.899 71.6ZM604.091 60.248C603.531 60.248 603.067 60.08 602.699 59.744C602.347 59.408 602.171 58.984 602.171 58.472C602.171 57.96 602.347 57.544 602.699 57.224C603.067 56.888 603.531 56.72 604.091 56.72C604.651 56.72 605.107 56.888 605.459 57.224C605.827 57.544 606.011 57.96 606.011 58.472C606.011 58.984 605.827 59.408 605.459 59.744C605.107 60.08 604.651 60.248 604.091 60.248ZM602.555 74V62.096H605.627V74H602.555ZM608.833 74V62.096H611.545L611.785 64.112C612.153 63.408 612.681 62.848 613.369 62.432C614.073 62.016 614.897 61.808 615.841 61.808C617.313 61.808 618.457 62.272 619.273 63.2C620.089 64.128 620.497 65.488 620.497 67.28V74H617.425V67.568C617.425 66.544 617.217 65.76 616.801 65.216C616.385 64.672 615.737 64.4 614.857 64.4C613.993 64.4 613.281 64.704 612.721 65.312C612.177 65.92 611.905 66.768 611.905 67.856V74H608.833Z" fill="#1F2937"/>
<path d="M896.004 71.414L887.397 80.021L885.983 78.607L894.589 70H887.004V68H898.004V79H896.004V71.414V71.414Z" fill="url(#paint1_linear_136_1438)"/>
<rect x="468.5" y="38.5" width="443" height="55" rx="7.5" stroke="#E5E7EB"/>
<path d="M28 144.202L25.303 146L28 147.798L30.697 146L28 144.202ZM32.5 144.798L35.197 143L29 138.869V142.465L32.5 144.798ZM36 144.868L34.303 146L36 147.131V144.87V144.868ZM32.5 147.202L29 149.535V153.131L35.197 149L32.5 147.202ZM27 142.465V138.869L20.803 143L23.5 144.798L27 142.465ZM20.803 149L27 153.131V149.535L23.5 147.202L20.803 149ZM21.697 146L20 144.869V147.131L21.697 146ZM18 143C18 142.835 18.0406 142.673 18.1182 142.528C18.1958 142.383 18.3081 142.259 18.445 142.168L27.445 136.168C27.6093 136.058 27.8025 136 28 136C28.1975 136 28.3907 136.058 28.555 136.168L37.555 142.168C37.6919 142.259 37.8042 142.383 37.8818 142.528C37.9594 142.673 38 142.835 38 143V149C38 149.165 37.9594 149.327 37.8818 149.472C37.8042 149.617 37.6919 149.741 37.555 149.832L28.555 155.832C28.3907 155.942 28.1975 156 28 156C27.8025 156 27.6093 155.942 27.445 155.832L18.445 149.832C18.3081 149.741 18.1958 149.617 18.1182 149.472C18.0406 149.327 18 149.165 18 149V143Z" fill="#1F2937"/>
<path d="M65.24 154.288C63.544 154.288 62.088 153.928 60.872 153.208C59.656 152.472 58.72 151.456 58.064 150.16C57.408 148.848 57.08 147.336 57.08 145.624C57.08 143.912 57.408 142.4 58.064 141.088C58.72 139.776 59.656 138.752 60.872 138.016C62.088 137.28 63.544 136.912 65.24 136.912C67.256 136.912 68.904 137.416 70.184 138.424C71.48 139.416 72.288 140.816 72.608 142.624H69.224C69.016 141.712 68.568 141 67.88 140.488C67.208 139.96 66.312 139.696 65.192 139.696C63.64 139.696 62.424 140.224 61.544 141.28C60.664 142.336 60.224 143.784 60.224 145.624C60.224 147.464 60.664 148.912 61.544 149.968C62.424 151.008 63.64 151.528 65.192 151.528C66.312 151.528 67.208 151.288 67.88 150.808C68.568 150.312 69.016 149.632 69.224 148.768H72.608C72.288 150.496 71.48 151.848 70.184 152.824C68.904 153.8 67.256 154.288 65.24 154.288ZM80.9673 154.288C79.8153 154.288 78.7753 154.024 77.8473 153.496C76.9353 152.968 76.2073 152.24 75.6633 151.312C75.1353 150.368 74.8713 149.28 74.8713 148.048C74.8713 146.816 75.1433 145.736 75.6873 144.808C76.2313 143.864 76.9593 143.128 77.8713 142.6C78.7993 142.072 79.8393 141.808 80.9913 141.808C82.1273 141.808 83.1513 142.072 84.0633 142.6C84.9913 143.128 85.7193 143.864 86.2473 144.808C86.7913 145.736 87.0633 146.816 87.0633 148.048C87.0633 149.28 86.7913 150.368 86.2473 151.312C85.7193 152.24 84.9913 152.968 84.0633 153.496C83.1353 154.024 82.1033 154.288 80.9673 154.288ZM80.9673 151.624C81.7673 151.624 82.4633 151.328 83.0553 150.736C83.6473 150.128 83.9433 149.232 83.9433 148.048C83.9433 146.864 83.6473 145.976 83.0553 145.384C82.4633 144.776 81.7753 144.472 80.9913 144.472C80.1753 144.472 79.4713 144.776 78.8793 145.384C78.3033 145.976 78.0153 146.864 78.0153 148.048C78.0153 149.232 78.3033 150.128 78.8793 150.736C79.4713 151.328 80.1673 151.624 80.9673 151.624ZM95.282 154.288C94.162 154.288 93.162 154.016 92.282 153.472C91.402 152.928 90.706 152.184 90.194 151.24C89.682 150.296 89.426 149.224 89.426 148.024C89.426 146.824 89.682 145.76 90.194 144.832C90.706 143.888 91.402 143.152 92.282 142.624C93.162 142.08 94.162 141.808 95.282 141.808C96.178 141.808 96.962 141.976 97.634 142.312C98.306 142.648 98.85 143.12 99.266 143.728V136.72H102.338V154H99.602L99.266 152.296C98.882 152.824 98.37 153.288 97.73 153.688C97.106 154.088 96.29 154.288 95.282 154.288ZM95.93 151.6C96.922 151.6 97.73 151.272 98.354 150.616C98.994 149.944 99.314 149.088 99.314 148.048C99.314 147.008 98.994 146.16 98.354 145.504C97.73 144.832 96.922 144.496 95.93 144.496C94.954 144.496 94.146 144.824 93.506 145.48C92.866 146.136 92.546 146.984 92.546 148.024C92.546 149.064 92.866 149.92 93.506 150.592C94.146 151.264 94.954 151.6 95.93 151.6ZM111.25 154.288C110.05 154.288 108.986 154.032 108.058 153.52C107.13 153.008 106.402 152.288 105.874 151.36C105.346 150.432 105.082 149.36 105.082 148.144C105.082 146.912 105.338 145.816 105.85 144.856C106.378 143.896 107.098 143.152 108.01 142.624C108.938 142.08 110.026 141.808 111.274 141.808C112.442 141.808 113.474 142.064 114.37 142.576C115.266 143.088 115.962 143.792 116.458 144.688C116.97 145.568 117.226 146.552 117.226 147.64C117.226 147.816 117.218 148 117.202 148.192C117.202 148.384 117.194 148.584 117.178 148.792H108.13C108.194 149.72 108.514 150.448 109.09 150.976C109.682 151.504 110.394 151.768 111.226 151.768C111.85 151.768 112.37 151.632 112.786 151.36C113.218 151.072 113.538 150.704 113.746 150.256H116.866C116.642 151.008 116.266 151.696 115.738 152.32C115.226 152.928 114.586 153.408 113.818 153.76C113.066 154.112 112.21 154.288 111.25 154.288ZM111.274 144.304C110.522 144.304 109.858 144.52 109.282 144.952C108.706 145.368 108.338 146.008 108.178 146.872H114.106C114.058 146.088 113.77 145.464 113.242 145C112.714 144.536 112.058 144.304 111.274 144.304ZM119.81 159.28V142.096H122.546L122.882 143.8C123.266 143.272 123.77 142.808 124.394 142.408C125.034 142.008 125.858 141.808 126.866 141.808C127.986 141.808 128.986 142.08 129.866 142.624C130.746 143.168 131.442 143.912 131.954 144.856C132.466 145.8 132.722 146.872 132.722 148.072C132.722 149.272 132.466 150.344 131.954 151.288C131.442 152.216 130.746 152.952 129.866 153.496C128.986 154.024 127.986 154.288 126.866 154.288C125.97 154.288 125.186 154.12 124.514 153.784C123.842 153.448 123.298 152.976 122.882 152.368V159.28H119.81ZM126.218 151.6C127.194 151.6 128.002 151.272 128.642 150.616C129.282 149.96 129.602 149.112 129.602 148.072C129.602 147.032 129.282 146.176 128.642 145.504C128.002 144.832 127.194 144.496 126.218 144.496C125.226 144.496 124.41 144.832 123.77 145.504C123.146 146.16 122.834 147.008 122.834 148.048C122.834 149.088 123.146 149.944 123.77 150.616C124.41 151.272 125.226 151.6 126.218 151.6ZM141.25 154.288C140.05 154.288 138.986 154.032 138.058 153.52C137.13 153.008 136.402 152.288 135.874 151.36C135.346 150.432 135.082 149.36 135.082 148.144C135.082 146.912 135.338 145.816 135.85 144.856C136.378 143.896 137.098 143.152 138.01 142.624C138.938 142.08 140.026 141.808 141.274 141.808C142.442 141.808 143.474 142.064 144.37 142.576C145.266 143.088 145.962 143.792 146.458 144.688C146.97 145.568 147.226 146.552 147.226 147.64C147.226 147.816 147.218 148 147.202 148.192C147.202 148.384 147.194 148.584 147.178 148.792H138.13C138.194 149.72 138.514 150.448 139.09 150.976C139.682 151.504 140.394 151.768 141.226 151.768C141.85 151.768 142.37 151.632 142.786 151.36C143.218 151.072 143.538 150.704 143.746 150.256H146.866C146.642 151.008 146.266 151.696 145.738 152.32C145.226 152.928 144.586 153.408 143.818 153.76C143.066 154.112 142.21 154.288 141.25 154.288ZM141.274 144.304C140.522 144.304 139.858 144.52 139.282 144.952C138.706 145.368 138.338 146.008 138.178 146.872H144.106C144.058 146.088 143.77 145.464 143.242 145C142.714 144.536 142.058 144.304 141.274 144.304ZM149.81 154V142.096H152.522L152.762 144.112C153.13 143.408 153.658 142.848 154.346 142.432C155.05 142.016 155.874 141.808 156.818 141.808C158.29 141.808 159.434 142.272 160.25 143.2C161.066 144.128 161.474 145.488 161.474 147.28V154H158.402V147.568C158.402 146.544 158.194 145.76 157.778 145.216C157.362 144.672 156.714 144.4 155.834 144.4C154.97 144.4 154.258 144.704 153.698 145.312C153.154 145.92 152.882 146.768 152.882 147.856V154H149.81Z" fill="#1F2937"/>
<path d="M428.004 151.414L419.397 160.021L417.983 158.607L426.589 150H419.004V148H430.004V159H428.004V151.414Z" fill="url(#paint2_linear_136_1438)"/>
<rect x="0.5" y="118.5" width="443" height="55" rx="7.5" stroke="#E5E7EB"/>
<path d="M506.162 139.656C505.398 139.994 504.589 140.216 503.76 140.314C504.634 139.791 505.288 138.969 505.6 138C504.78 138.488 503.881 138.83 502.944 139.015C502.314 138.342 501.48 137.895 500.571 137.745C499.661 137.594 498.728 137.749 497.915 138.184C497.102 138.618 496.456 139.31 496.077 140.15C495.698 140.99 495.607 141.932 495.818 142.829C494.155 142.746 492.528 142.314 491.043 141.561C489.558 140.808 488.248 139.751 487.198 138.459C486.826 139.097 486.631 139.823 486.632 140.562C486.632 142.012 487.37 143.293 488.492 144.043C487.828 144.022 487.178 143.843 486.598 143.52V143.572C486.598 144.538 486.932 145.474 487.544 146.221C488.155 146.969 489.006 147.482 489.953 147.673C489.336 147.84 488.69 147.865 488.063 147.745C488.33 148.576 488.85 149.303 489.55 149.824C490.251 150.345 491.097 150.634 491.97 150.65C491.102 151.331 490.109 151.835 489.047 152.132C487.984 152.429 486.874 152.514 485.779 152.382C487.691 153.611 489.916 154.264 492.189 154.262C499.882 154.262 504.089 147.889 504.089 142.362C504.089 142.182 504.084 142 504.076 141.822C504.895 141.23 505.601 140.497 506.163 139.657L506.162 139.656Z" fill="#1F2937"/>
<path d="M529.544 154V139.672H524.648V137.2H537.536V139.672H532.616V154H529.544ZM540.708 154L537.228 142.096H540.276L542.34 150.664L544.74 142.096H548.148L550.548 150.664L552.636 142.096H555.684L552.18 154H548.988L546.444 145.096L543.9 154H540.708ZM559.279 140.248C558.719 140.248 558.255 140.08 557.887 139.744C557.535 139.408 557.359 138.984 557.359 138.472C557.359 137.96 557.535 137.544 557.887 137.224C558.255 136.888 558.719 136.72 559.279 136.72C559.839 136.72 560.295 136.888 560.647 137.224C561.015 137.544 561.199 137.96 561.199 138.472C561.199 138.984 561.015 139.408 560.647 139.744C560.295 140.08 559.839 140.248 559.279 140.248ZM557.743 154V142.096H560.815V154H557.743ZM569.325 154C568.077 154 567.077 153.696 566.325 153.088C565.573 152.48 565.197 151.4 565.197 149.848V144.664H563.157V142.096H565.197L565.557 138.904H568.269V142.096H571.485V144.664H568.269V149.872C568.269 150.448 568.389 150.848 568.629 151.072C568.885 151.28 569.317 151.384 569.925 151.384H571.413V154H569.325ZM579.427 154C578.179 154 577.179 153.696 576.427 153.088C575.675 152.48 575.299 151.4 575.299 149.848V144.664H573.259V142.096H575.299L575.659 138.904H578.371V142.096H581.587V144.664H578.371V149.872C578.371 150.448 578.491 150.848 578.73 151.072C578.987 151.28 579.419 151.384 580.027 151.384H581.515V154H579.427ZM589.703 154.288C588.503 154.288 587.439 154.032 586.511 153.52C585.583 153.008 584.855 152.288 584.327 151.36C583.799 150.432 583.535 149.36 583.535 148.144C583.535 146.912 583.791 145.816 584.303 144.856C584.831 143.896 585.551 143.152 586.463 142.624C587.391 142.08 588.479 141.808 589.727 141.808C590.895 141.808 591.927 142.064 592.823 142.576C593.719 143.088 594.415 143.792 594.911 144.688C595.423 145.568 595.679 146.552 595.679 147.64C595.679 147.816 595.671 148 595.655 148.192C595.655 148.384 595.647 148.584 595.631 148.792H586.583C586.647 149.72 586.967 150.448 587.543 150.976C588.135 151.504 588.847 151.768 589.679 151.768C590.303 151.768 590.823 151.632 591.239 151.36C591.671 151.072 591.991 150.704 592.199 150.256H595.319C595.095 151.008 594.719 151.696 594.191 152.32C593.679 152.928 593.039 153.408 592.271 153.76C591.519 154.112 590.663 154.288 589.703 154.288ZM589.727 144.304C588.975 144.304 588.311 144.52 587.735 144.952C587.159 145.368 586.791 146.008 586.631 146.872H592.559C592.511 146.088 592.223 145.464 591.695 145C591.167 144.536 590.511 144.304 589.727 144.304ZM598.263 154V142.096H600.999L601.287 144.328C601.719 143.56 602.303 142.952 603.039 142.504C603.791 142.04 604.671 141.808 605.679 141.808V145.048H604.815C604.143 145.048 603.543 145.152 603.015 145.36C602.487 145.568 602.071 145.928 601.767 146.44C601.479 146.952 601.335 147.664 601.335 148.576V154H598.263Z" fill="#1F2937"/>
<path d="M896.004 151.414L887.397 160.021L885.983 158.607L894.589 150H887.004V148H898.004V159H896.004V151.414Z" fill="url(#paint3_linear_136_1438)"/>
<rect x="468.5" y="118.5" width="443" height="55" rx="7.5" stroke="#E5E7EB"/>
<defs>
<linearGradient id="paint0_linear_136_1438" x1="417.983" y1="68" x2="423.26" y2="68" gradientUnits="userSpaceOnUse">
<stop stop-color="#8B5CF6"/>
<stop offset="1" stop-color="#EC4899"/>
</linearGradient>
<linearGradient id="paint1_linear_136_1438" x1="885.983" y1="68" x2="891.26" y2="68" gradientUnits="userSpaceOnUse">
<stop stop-color="#8B5CF6"/>
<stop offset="1" stop-color="#EC4899"/>
</linearGradient>
<linearGradient id="paint2_linear_136_1438" x1="417.983" y1="148" x2="423.26" y2="148" gradientUnits="userSpaceOnUse">
<stop stop-color="#8B5CF6"/>
<stop offset="1" stop-color="#EC4899"/>
</linearGradient>
<linearGradient id="paint3_linear_136_1438" x1="885.983" y1="148" x2="891.26" y2="148" gradientUnits="userSpaceOnUse">
<stop stop-color="#8B5CF6"/>
<stop offset="1" stop-color="#EC4899"/>
</linearGradient>
</defs>
</svg>
