<svg width="32" height="32" viewBox="0 0 40 40" fill="none" xmlns="http://www.w3.org/2000/svg">
<g clip-path="url(#clip0_621_231)">
<path d="M34.9166 14.1155C33.2588 13.8569 31.3768 15.3032 30.4479 17.8297C29.8376 19.4887 30.0801 21.5529 28.8434 22.1063C28.371 22.318 28.0222 22.0894 27.7668 21.6942C27.4242 21.0038 27.1541 19.8672 27.004 18.2165L26.4032 4.21144C26.3666 3.13882 25.5561 2.30804 24.1506 2.343C22.7451 2.37797 21.9258 3.29115 21.9614 4.36406L22.5473 17.0514C22.7273 19.8398 21.6175 19.6218 21.0515 16.5607L21.0512 16.5596L18.0386 2.30702C17.8088 1.2045 16.736 0.540653 15.4891 0.824143C14.2422 1.10763 13.5509 2.08658 13.7783 3.1886L16.9175 17.7719C17.5425 20.7183 16.2092 19.9023 15.4198 17.858L10.6324 6.6623C10.1675 5.61009 8.93497 5.12708 7.75365 5.65528C6.57261 6.18454 6.10019 7.40507 6.56502 8.45728L11.0206 18.6676C12.7455 22.5593 12.2151 23.9069 9.66369 19.8628L6.22028 13.8549C5.66315 12.8918 4.46779 12.5219 3.27974 13.2268C2.09168 13.9316 1.81482 15.1135 2.37088 16.0769L5.67155 21.7067C7.54269 25.8951 8.0054 27.6219 8.81262 30.6346C9.61985 33.6472 13.5056 42.6068 24.104 39.7669C34.7023 36.9271 33.9974 25.5773 33.9157 24.8687C33.9157 24.8687 33.6221 23.2449 34.3325 21.4614C35.3428 18.9257 36.108 17.3553 36.5746 16.4136C36.8116 15.9371 36.7545 14.4018 34.9166 14.1155Z" fill="#B68143"/>
<path d="M27.6788 24.1567C27.3455 24.0211 27.0633 23.6722 27.03 22.9133C24.9277 23.2011 22.0844 23.79 19.8966 25.93C17.0566 28.7067 16.5722 31.7078 16.5955 33.7156C16.6144 35.3344 17.4977 36.1011 17.7566 33.7022C18.0822 30.6722 20.2922 24.6544 27.6788 24.1567Z" fill="#D3A063"/>
</g>
<defs>
<clipPath id="clip0_621_231">
<rect width="40" height="40" fill="white"/>
</clipPath>
</defs>
</svg>
