<svg width="55" height="565" viewBox="0 0 55 565" fill="none" xmlns="http://www.w3.org/2000/svg">
<g filter="url(#filter0_b_136_1416)">
<rect width="541" height="565" rx="32" fill="white" fill-opacity="0.8"/>
<g filter="url(#filter1_b_136_1416)">
<path d="M24 56C24 38.3269 38.3269 24 56 24H485C502.673 24 517 38.3269 517 56V344C517 361.673 502.673 376 485 376H56C38.3269 376 24 361.673 24 344V56Z" fill="#F5F5F5" fill-opacity="0.6"/>
</g>
<path d="M25.5586 431H28.1836V425.223H31.8516C35.168 425.223 37.4648 422.961 37.4648 419.656V419.633C37.4648 416.316 35.168 414.09 31.8516 414.09H25.5586V431ZM31.1953 416.305C33.4805 416.305 34.793 417.535 34.793 419.645V419.668C34.793 421.789 33.4805 423.02 31.1953 423.02H28.1836V416.305H31.1953ZM39.4738 431H42.0051V423.652C42.0051 421.812 43.0129 420.746 44.6418 420.746C45.134 420.746 45.5793 420.805 45.7785 420.887V418.531C45.5793 418.496 45.2629 418.438 44.8996 418.438C43.4934 418.438 42.4621 419.34 42.0637 420.781H42.0051V418.672H39.4738V431ZM52.1234 431.246C55.6508 431.246 57.9711 428.809 57.9711 424.836V424.812C57.9711 420.863 55.6273 418.438 52.1117 418.438C48.6078 418.438 46.2758 420.875 46.2758 424.812V424.836C46.2758 428.797 48.5844 431.246 52.1234 431.246ZM52.1352 429.125C50.1547 429.125 48.8656 427.566 48.8656 424.836V424.812C48.8656 422.117 50.1664 420.559 52.1117 420.559C54.0922 420.559 55.3813 422.117 55.3813 424.812V424.836C55.3813 427.555 54.1156 429.125 52.1352 429.125ZM61.2926 416.773C62.1246 416.773 62.7691 416.117 62.7691 415.32C62.7691 414.512 62.1246 413.855 61.2926 413.855C60.4723 413.855 59.816 414.512 59.816 415.32C59.816 416.117 60.4723 416.773 61.2926 416.773ZM58.527 435.125C61.2574 435.125 62.5582 433.93 62.5582 431.422V418.672H60.027V431.398C60.027 432.641 59.5582 433.039 58.3043 433.039C58.1754 433.039 58.0582 433.027 57.941 433.027V435.102C58.1051 435.113 58.3277 435.125 58.527 435.125ZM70.45 431.246C73.4383 431.246 75.3367 429.465 75.7352 427.508L75.7586 427.379H73.3563L73.3211 427.473C73.0047 428.398 72.0086 429.172 70.5086 429.172C68.493 429.172 67.2156 427.812 67.1688 425.48H75.8992V424.625C75.8992 420.922 73.7781 418.438 70.3211 418.438C66.8641 418.438 64.6375 421.016 64.6375 424.871V424.883C64.6375 428.773 66.8289 431.246 70.45 431.246ZM70.3328 420.512C71.9852 420.512 73.1805 421.555 73.3914 423.688H67.2039C67.4266 421.625 68.6922 420.512 70.3328 420.512ZM83.1817 431.246C86.1465 431.246 88.209 429.348 88.4785 426.875L88.4902 426.793H86.0527L86.041 426.887C85.7363 428.223 84.7402 429.125 83.1817 429.125C81.2246 429.125 79.9238 427.543 79.9238 424.848V424.836C79.9238 422.199 81.2012 420.559 83.1699 420.559C84.8223 420.559 85.7598 421.578 86.0293 422.785L86.0527 422.879H88.4668L88.4551 422.797C88.2442 420.477 86.3223 418.438 83.1465 418.438C79.6309 418.438 77.334 420.91 77.334 424.812V424.824C77.334 428.773 79.584 431.246 83.1817 431.246ZM94.6242 431.246C95.1399 431.246 95.6203 431.188 95.9133 431.141V429.184C95.7258 429.207 95.5031 429.23 95.2336 429.23C94.1672 429.23 93.6047 428.855 93.6047 427.602V420.688H95.9133V418.672H93.6047V415.461H91.0149V418.672H89.2453V420.688H91.0149V427.754C91.0149 430.215 92.1867 431.246 94.6242 431.246ZM107.42 431H110.045V416.352H115.213V414.09H102.24V416.352H107.42V431ZM117.878 416.773C118.71 416.773 119.354 416.117 119.354 415.32C119.354 414.512 118.71 413.855 117.878 413.855C117.057 413.855 116.401 414.512 116.401 415.32C116.401 416.117 117.057 416.773 117.878 416.773ZM116.612 431H119.143V418.672H116.612V431ZM126.098 431.246C126.613 431.246 127.094 431.188 127.387 431.141V429.184C127.199 429.207 126.977 429.23 126.707 429.23C125.641 429.23 125.078 428.855 125.078 427.602V420.688H127.387V418.672H125.078V415.461H122.488V418.672H120.719V420.688H122.488V427.754C122.488 430.215 123.66 431.246 126.098 431.246ZM129.595 431H132.126V414.09H129.595V431ZM140.006 431.246C142.995 431.246 144.893 429.465 145.291 427.508L145.315 427.379H142.913L142.877 427.473C142.561 428.398 141.565 429.172 140.065 429.172C138.049 429.172 136.772 427.812 136.725 425.48H145.456V424.625C145.456 420.922 143.334 418.438 139.877 418.438C136.42 418.438 134.194 421.016 134.194 424.871V424.883C134.194 428.773 136.385 431.246 140.006 431.246ZM139.889 420.512C141.541 420.512 142.737 421.555 142.948 423.688H136.76C136.983 421.625 138.248 420.512 139.889 420.512Z" fill="black" fill-opacity="0.87"/>
<path d="M27.0215 469V463.812H32.3257V462.484H27.0215V458.367H32.7988V457.022H25.5273V469H27.0215ZM35.1795 469H36.6073V460.052H35.1795V469ZM35.8934 458.325C36.4413 458.325 36.8895 457.877 36.8895 457.329C36.8895 456.781 36.4413 456.333 35.8934 456.333C35.3456 456.333 34.8973 456.781 34.8973 457.329C34.8973 457.877 35.3456 458.325 35.8934 458.325ZM39.486 469H40.9138V456.499H39.486V469ZM43.8423 469H45.2701V456.499H43.8423V469ZM53.7503 472.237C55.3357 472.237 56.0496 471.623 56.8133 469.548L60.3079 460.052H58.7888L56.3401 467.415H56.2073L53.7503 460.052H52.2063L55.5183 469.008L55.3523 469.54C54.9788 470.619 54.5305 471.009 53.7088 471.009C53.5095 471.009 53.2854 471 53.1111 470.967V472.188C53.3103 472.221 53.5593 472.237 53.7503 472.237ZM65.6354 469.158C68.1837 469.158 69.7609 467.398 69.7609 464.526C69.7609 461.646 68.1837 459.894 65.6354 459.894C63.087 459.894 61.5099 461.646 61.5099 464.526C61.5099 467.398 63.087 469.158 65.6354 469.158ZM65.6354 467.871C63.942 467.871 62.9874 466.643 62.9874 464.526C62.9874 462.401 63.942 461.181 65.6354 461.181C67.3287 461.181 68.2833 462.401 68.2833 464.526C68.2833 466.643 67.3287 467.871 65.6354 467.871ZM79.3135 460.052H77.8857V465.348C77.8857 466.917 77.0224 467.854 75.4453 467.854C74.0176 467.854 73.4199 467.107 73.4199 465.497V460.052H71.9922V465.846C71.9922 467.962 73.0381 469.158 75.0469 469.158C76.4165 469.158 77.3711 468.593 77.8193 467.597H77.9521V469H79.3135V460.052ZM82.076 469H83.5037V463.455C83.5037 462.193 84.4915 461.28 85.8529 461.28C86.1351 461.28 86.6497 461.33 86.766 461.363V459.936C86.5833 459.911 86.2845 459.894 86.0521 459.894C84.8651 459.894 83.8358 460.508 83.5702 461.38H83.4373V460.052H82.076V469ZM97.8526 459.894C96.6324 459.894 95.5616 460.517 94.9888 461.546H94.856V460.052H93.4947V471.988H94.9224V467.655H95.0552C95.545 468.602 96.5743 469.158 97.8526 469.158C100.127 469.158 101.613 467.323 101.613 464.526C101.613 461.712 100.135 459.894 97.8526 459.894ZM97.5123 467.871C95.9019 467.871 94.8809 466.576 94.8809 464.526C94.8809 462.467 95.9019 461.181 97.5206 461.181C99.1558 461.181 100.135 462.434 100.135 464.526C100.135 466.618 99.1558 467.871 97.5123 467.871ZM103.927 469H105.355V463.455C105.355 462.193 106.343 461.28 107.704 461.28C107.986 461.28 108.501 461.33 108.617 461.363V459.936C108.434 459.911 108.136 459.894 107.903 459.894C106.716 459.894 105.687 460.508 105.421 461.38H105.288V460.052H103.927V469ZM113.903 469.158C116.451 469.158 118.029 467.398 118.029 464.526C118.029 461.646 116.451 459.894 113.903 459.894C111.355 459.894 109.778 461.646 109.778 464.526C109.778 467.398 111.355 469.158 113.903 469.158ZM113.903 467.871C112.21 467.871 111.255 466.643 111.255 464.526C111.255 462.401 112.21 461.181 113.903 461.181C115.596 461.181 116.551 462.401 116.551 464.526C116.551 466.643 115.596 467.871 113.903 467.871ZM121.804 460.052H120.376V469.465C120.376 470.453 120.044 470.851 119.031 470.851H118.816V472.071H119.065C120.941 472.071 121.804 471.283 121.804 469.44V460.052ZM121.107 458.325C121.654 458.325 122.103 457.877 122.103 457.329C122.103 456.781 121.654 456.333 121.107 456.333C120.559 456.333 120.11 456.781 120.11 457.329C120.11 457.877 120.559 458.325 121.107 458.325ZM128.169 461.156C129.588 461.156 130.535 462.202 130.568 463.787H125.637C125.745 462.202 126.741 461.156 128.169 461.156ZM130.526 466.684C130.153 467.473 129.373 467.896 128.219 467.896C126.7 467.896 125.712 466.775 125.637 465.007V464.941H132.07V464.393C132.07 461.612 130.601 459.894 128.186 459.894C125.728 459.894 124.151 461.72 124.151 464.534C124.151 467.365 125.704 469.158 128.186 469.158C130.144 469.158 131.539 468.211 131.954 466.684H130.526ZM141.789 462.791C141.54 461.197 140.212 459.894 138.037 459.894C135.53 459.894 133.936 461.704 133.936 464.493C133.936 467.34 135.538 469.158 138.045 469.158C140.195 469.158 141.532 467.946 141.789 466.302H140.345C140.079 467.315 139.241 467.871 138.037 467.871C136.443 467.871 135.414 466.56 135.414 464.493C135.414 462.467 136.427 461.181 138.037 461.181C139.324 461.181 140.112 461.903 140.345 462.791H141.789ZM144.734 457.736V460.052H143.29V461.247H144.734V466.676C144.734 468.386 145.473 469.066 147.316 469.066C147.598 469.066 147.872 469.033 148.154 468.983V467.78C147.888 467.805 147.747 467.813 147.49 467.813C146.56 467.813 146.162 467.365 146.162 466.311V461.247H148.154V460.052H146.162V457.736H144.734ZM159.705 469.158C161.972 469.158 163.457 467.323 163.457 464.526C163.457 461.712 161.98 459.894 159.705 459.894C158.477 459.894 157.39 460.5 156.9 461.463H156.767V456.499H155.339V469H156.701V467.572H156.833C157.398 468.568 158.46 469.158 159.705 469.158ZM159.373 461.181C161.009 461.181 161.98 462.434 161.98 464.526C161.98 466.618 161.009 467.871 159.373 467.871C157.746 467.871 156.734 466.593 156.734 464.526C156.734 462.459 157.746 461.181 159.373 461.181ZM165.772 469H167.199V463.455C167.199 462.193 168.187 461.28 169.549 461.28C169.831 461.28 170.345 461.33 170.462 461.363V459.936C170.279 459.911 169.98 459.894 169.748 459.894C168.561 459.894 167.531 460.508 167.266 461.38H167.133V460.052H165.772V469ZM172.353 469H173.78V460.052H172.353V469ZM173.066 458.325C173.614 458.325 174.063 457.877 174.063 457.329C174.063 456.781 173.614 456.333 173.066 456.333C172.519 456.333 172.07 456.781 172.07 457.329C172.07 457.877 172.519 458.325 173.066 458.325ZM180.145 461.156C181.565 461.156 182.511 462.202 182.544 463.787H177.614C177.722 462.202 178.718 461.156 180.145 461.156ZM182.503 466.684C182.129 467.473 181.349 467.896 180.195 467.896C178.676 467.896 177.688 466.775 177.614 465.007V464.941H184.047V464.393C184.047 461.612 182.578 459.894 180.162 459.894C177.705 459.894 176.128 461.72 176.128 464.534C176.128 467.365 177.68 469.158 180.162 469.158C182.121 469.158 183.516 468.211 183.931 466.684H182.503ZM186.959 469H188.387V461.247H190.437V460.052H188.387V459.097C188.387 458.118 188.818 457.62 189.847 457.62C190.105 457.62 190.346 457.628 190.52 457.661V456.499C190.221 456.441 189.906 456.416 189.557 456.416C187.855 456.416 186.959 457.271 186.959 459.056V460.052H185.473V461.247H186.959V469ZM197.547 469H198.975V463.704C198.975 462.193 199.855 461.181 201.457 461.181C202.81 461.181 203.524 461.969 203.524 463.555V469H204.952V463.206C204.952 461.106 203.756 459.894 201.864 459.894C200.494 459.894 199.556 460.475 199.108 461.463H198.975V456.499H197.547V469ZM211.201 461.156C212.62 461.156 213.566 462.202 213.599 463.787H208.669C208.777 462.202 209.773 461.156 211.201 461.156ZM213.558 466.684C213.184 467.473 212.404 467.896 211.25 467.896C209.731 467.896 208.744 466.775 208.669 465.007V464.941H215.102V464.393C215.102 461.612 213.633 459.894 211.217 459.894C208.76 459.894 207.183 461.72 207.183 464.534C207.183 467.365 208.735 469.158 211.217 469.158C213.176 469.158 214.571 468.211 214.986 466.684H213.558ZM217.416 469H218.844V463.455C218.844 462.193 219.832 461.28 221.193 461.28C221.475 461.28 221.99 461.33 222.106 461.363V459.936C221.924 459.911 221.625 459.894 221.392 459.894C220.205 459.894 219.176 460.508 218.91 461.38H218.778V460.052H217.416V469ZM227.284 461.156C228.704 461.156 229.65 462.202 229.683 463.787H224.753C224.86 462.202 225.857 461.156 227.284 461.156ZM229.642 466.684C229.268 467.473 228.488 467.896 227.334 467.896C225.815 467.896 224.827 466.775 224.753 465.007V464.941H231.186V464.393C231.186 461.612 229.716 459.894 227.301 459.894C224.844 459.894 223.267 461.72 223.267 464.534C223.267 467.365 224.819 469.158 227.301 469.158C229.26 469.158 230.654 468.211 231.069 466.684H229.642ZM234.679 469.083C235.276 469.083 235.758 468.593 235.758 468.004C235.758 467.406 235.276 466.925 234.679 466.925C234.089 466.925 233.6 467.406 233.6 468.004C233.6 468.593 234.089 469.083 234.679 469.083ZM245.168 469V457.022H243.673V469H245.168ZM248.71 457.736V460.052H247.266V461.247H248.71V466.676C248.71 468.386 249.449 469.066 251.292 469.066C251.574 469.066 251.848 469.033 252.13 468.983V467.78C251.865 467.805 251.724 467.813 251.466 467.813C250.537 467.813 250.138 467.365 250.138 466.311V461.247H252.13V460.052H250.138V457.736H248.71ZM266.637 462.791C266.388 461.197 265.06 459.894 262.885 459.894C260.378 459.894 258.784 461.704 258.784 464.493C258.784 467.34 260.386 469.158 262.893 469.158C265.043 469.158 266.38 467.946 266.637 466.302H265.193C264.927 467.315 264.089 467.871 262.885 467.871C261.291 467.871 260.262 466.56 260.262 464.493C260.262 462.467 261.275 461.181 262.885 461.181C264.172 461.181 264.96 461.903 265.193 462.791H266.637ZM271.574 467.904C270.537 467.904 269.765 467.373 269.765 466.46C269.765 465.563 270.362 465.09 271.724 464.999L274.131 464.841V465.663C274.131 466.941 273.044 467.904 271.574 467.904ZM271.309 469.158C272.504 469.158 273.483 468.635 274.064 467.68H274.197V469H275.559V462.874C275.559 461.015 274.338 459.894 272.155 459.894C270.246 459.894 268.835 460.84 268.644 462.276H270.088C270.288 461.571 271.035 461.164 272.106 461.164C273.442 461.164 274.131 461.77 274.131 462.874V463.688L271.549 463.845C269.466 463.97 268.287 464.891 268.287 466.493C268.287 468.128 269.574 469.158 271.309 469.158ZM278.271 469H279.699V463.704C279.699 462.135 280.621 461.181 282.048 461.181C283.476 461.181 284.157 461.944 284.157 463.555V469H285.584V463.206C285.584 461.081 284.464 459.894 282.455 459.894C281.085 459.894 280.214 460.475 279.766 461.463H279.633V460.052H278.271V469ZM297.592 469.158C299.859 469.158 301.344 467.323 301.344 464.526C301.344 461.712 299.867 459.894 297.592 459.894C296.364 459.894 295.276 460.5 294.787 461.463H294.654V456.499H293.226V469H294.588V467.572H294.72C295.285 468.568 296.347 469.158 297.592 469.158ZM297.26 461.181C298.896 461.181 299.867 462.434 299.867 464.526C299.867 466.618 298.896 467.871 297.26 467.871C295.633 467.871 294.621 466.593 294.621 464.526C294.621 462.459 295.633 461.181 297.26 461.181ZM307.228 461.156C308.647 461.156 309.594 462.202 309.627 463.787H304.696C304.804 462.202 305.8 461.156 307.228 461.156ZM309.585 466.684C309.212 467.473 308.432 467.896 307.278 467.896C305.759 467.896 304.771 466.775 304.696 465.007V464.941H311.129V464.393C311.129 461.612 309.66 459.894 307.245 459.894C304.788 459.894 303.21 461.72 303.21 464.534C303.21 467.365 304.763 469.158 307.245 469.158C309.204 469.158 310.598 468.211 311.013 466.684H309.585ZM318.912 457.736V460.052H317.468V461.247H318.912V466.676C318.912 468.386 319.651 469.066 321.494 469.066C321.776 469.066 322.05 469.033 322.332 468.983V467.78C322.067 467.805 321.925 467.813 321.668 467.813C320.738 467.813 320.34 467.365 320.34 466.311V461.247H322.332V460.052H320.34V457.736H318.912ZM324.647 469H326.074V463.704C326.074 462.193 326.954 461.181 328.556 461.181C329.909 461.181 330.623 461.969 330.623 463.555V469H332.051V463.206C332.051 461.106 330.855 459.894 328.963 459.894C327.593 459.894 326.655 460.475 326.207 461.463H326.074V456.499H324.647V469ZM338.3 461.156C339.719 461.156 340.665 462.202 340.699 463.787H335.768C335.876 462.202 336.872 461.156 338.3 461.156ZM340.657 466.684C340.284 467.473 339.503 467.896 338.349 467.896C336.83 467.896 335.843 466.775 335.768 465.007V464.941H342.201V464.393C342.201 461.612 340.732 459.894 338.316 459.894C335.859 459.894 334.282 461.72 334.282 464.534C334.282 467.365 335.834 469.158 338.316 469.158C340.275 469.158 341.67 468.211 342.085 466.684H340.657ZM353.064 469.158C355.612 469.158 357.189 467.398 357.189 464.526C357.189 461.646 355.612 459.894 353.064 459.894C350.515 459.894 348.938 461.646 348.938 464.526C348.938 467.398 350.515 469.158 353.064 469.158ZM353.064 467.871C351.37 467.871 350.416 466.643 350.416 464.526C350.416 462.401 351.37 461.181 353.064 461.181C354.757 461.181 355.712 462.401 355.712 464.526C355.712 466.643 354.757 467.871 353.064 467.871ZM366.742 460.052H365.314V465.348C365.314 466.917 364.451 467.854 362.873 467.854C361.446 467.854 360.848 467.107 360.848 465.497V460.052H359.42V465.846C359.42 467.962 360.466 469.158 362.475 469.158C363.845 469.158 364.799 468.593 365.247 467.597H365.38V469H366.742V460.052ZM370.102 457.736V460.052H368.658V461.247H370.102V466.676C370.102 468.386 370.841 469.066 372.683 469.066C372.966 469.066 373.24 469.033 373.522 468.983V467.78C373.256 467.805 373.115 467.813 372.858 467.813C371.928 467.813 371.53 467.365 371.53 466.311V461.247H373.522V460.052H371.53V457.736H370.102ZM383.025 462.791C382.776 461.197 381.447 459.894 379.273 459.894C376.766 459.894 375.172 461.704 375.172 464.493C375.172 467.34 376.774 469.158 379.281 469.158C381.431 469.158 382.767 467.946 383.025 466.302H381.58C381.315 467.315 380.476 467.871 379.273 467.871C377.679 467.871 376.65 466.56 376.65 464.493C376.65 462.467 377.662 461.181 379.273 461.181C380.559 461.181 381.348 461.903 381.58 462.791H383.025ZM388.883 469.158C391.432 469.158 393.009 467.398 393.009 464.526C393.009 461.646 391.432 459.894 388.883 459.894C386.335 459.894 384.758 461.646 384.758 464.526C384.758 467.398 386.335 469.158 388.883 469.158ZM388.883 467.871C387.19 467.871 386.235 466.643 386.235 464.526C386.235 462.401 387.19 461.181 388.883 461.181C390.577 461.181 391.531 462.401 391.531 464.526C391.531 466.643 390.577 467.871 388.883 467.871ZM395.323 469H396.751V463.455C396.751 462.193 397.656 461.181 398.826 461.181C399.955 461.181 400.694 461.861 400.694 462.924V469H402.121V463.248C402.121 462.11 402.952 461.181 404.197 461.181C405.458 461.181 406.081 461.828 406.081 463.148V469H407.509V462.816C407.509 460.94 406.488 459.894 404.661 459.894C403.425 459.894 402.404 460.517 401.922 461.463H401.789C401.374 460.533 400.528 459.894 399.316 459.894C398.12 459.894 397.224 460.467 396.817 461.463H396.684V460.052H395.323V469ZM413.758 461.156C415.177 461.156 416.123 462.202 416.156 463.787H411.226C411.334 462.202 412.33 461.156 413.758 461.156ZM416.115 466.684C415.741 467.473 414.961 467.896 413.807 467.896C412.288 467.896 411.301 466.775 411.226 465.007V464.941H417.659V464.393C417.659 461.612 416.19 459.894 413.774 459.894C411.317 459.894 409.74 461.72 409.74 464.534C409.74 467.365 411.292 469.158 413.774 469.158C415.733 469.158 417.128 468.211 417.543 466.684H416.115ZM428.521 469.158C431.07 469.158 432.647 467.398 432.647 464.526C432.647 461.646 431.07 459.894 428.521 459.894C425.973 459.894 424.396 461.646 424.396 464.526C424.396 467.398 425.973 469.158 428.521 469.158ZM428.521 467.871C426.828 467.871 425.873 466.643 425.873 464.526C425.873 462.401 426.828 461.181 428.521 461.181C430.215 461.181 431.169 462.401 431.169 464.526C431.169 466.643 430.215 467.871 428.521 467.871ZM435.559 469H436.987V461.247H439.037V460.052H436.987V459.097C436.987 458.118 437.418 457.62 438.448 457.62C438.705 457.62 438.946 457.628 439.12 457.661V456.499C438.821 456.441 438.506 456.416 438.157 456.416C436.455 456.416 435.559 457.271 435.559 459.056V460.052H434.073V461.247H435.559V469ZM446.662 457.736V460.052H445.218V461.247H446.662V466.676C446.662 468.386 447.401 469.066 449.244 469.066C449.526 469.066 449.8 469.033 450.082 468.983V467.78C449.816 467.805 449.675 467.813 449.418 467.813C448.488 467.813 448.09 467.365 448.09 466.311V461.247H450.082V460.052H448.09V457.736H446.662ZM452.396 469H453.824V463.704C453.824 462.193 454.704 461.181 456.306 461.181C457.659 461.181 458.373 461.969 458.373 463.555V469H459.801V463.206C459.801 461.106 458.605 459.894 456.713 459.894C455.343 459.894 454.405 460.475 453.957 461.463H453.824V456.499H452.396V469ZM466.049 461.156C467.469 461.156 468.415 462.202 468.448 463.787H463.518C463.626 462.202 464.622 461.156 466.049 461.156ZM468.407 466.684C468.033 467.473 467.253 467.896 466.099 467.896C464.58 467.896 463.592 466.775 463.518 465.007V464.941H469.951V464.393C469.951 461.612 468.482 459.894 466.066 459.894C463.609 459.894 462.032 461.72 462.032 464.534C462.032 467.365 463.584 469.158 466.066 469.158C468.025 469.158 469.42 468.211 469.835 466.684H468.407ZM29.7026 481.894C28.4824 481.894 27.4116 482.517 26.8389 483.546H26.7061V482.052H25.3447V493.988H26.7725V489.655H26.9053C27.395 490.602 28.4243 491.158 29.7026 491.158C31.9771 491.158 33.4629 489.323 33.4629 486.526C33.4629 483.712 31.9854 481.894 29.7026 481.894ZM29.3623 489.871C27.752 489.871 26.731 488.576 26.731 486.526C26.731 484.467 27.752 483.181 29.3706 483.181C31.0059 483.181 31.9854 484.434 31.9854 486.526C31.9854 488.618 31.0059 489.871 29.3623 489.871ZM35.7772 491H37.2049V485.455C37.2049 484.193 38.1927 483.28 39.5541 483.28C39.8363 483.28 40.3509 483.33 40.4671 483.363V481.936C40.2845 481.911 39.9857 481.894 39.7533 481.894C38.5663 481.894 37.537 482.508 37.2713 483.38H37.1385V482.052H35.7772V491ZM45.7531 491.158C48.3015 491.158 49.8786 489.398 49.8786 486.526C49.8786 483.646 48.3015 481.894 45.7531 481.894C43.2048 481.894 41.6276 483.646 41.6276 486.526C41.6276 489.398 43.2048 491.158 45.7531 491.158ZM45.7531 489.871C44.0598 489.871 43.1052 488.643 43.1052 486.526C43.1052 484.401 44.0598 483.181 45.7531 483.181C47.4465 483.181 48.4011 484.401 48.4011 486.526C48.4011 488.643 47.4465 489.871 45.7531 489.871ZM53.6539 482.052H52.2261V491.465C52.2261 492.453 51.8941 492.851 50.8814 492.851H50.6656V494.071H50.9146C52.7906 494.071 53.6539 493.283 53.6539 491.44V482.052ZM52.9566 480.325C53.5045 480.325 53.9527 479.877 53.9527 479.329C53.9527 478.781 53.5045 478.333 52.9566 478.333C52.4088 478.333 51.9605 478.781 51.9605 479.329C51.9605 479.877 52.4088 480.325 52.9566 480.325ZM60.019 483.156C61.4384 483.156 62.3847 484.202 62.4179 485.787H57.4872C57.5951 484.202 58.5912 483.156 60.019 483.156ZM62.3764 488.684C62.0028 489.473 61.2226 489.896 60.0688 489.896C58.5497 489.896 57.5619 488.775 57.4872 487.007V486.941H63.9203V486.393C63.9203 483.612 62.4511 481.894 60.0356 481.894C57.5785 481.894 56.0014 483.72 56.0014 486.534C56.0014 489.365 57.5536 491.158 60.0356 491.158C61.9945 491.158 63.3891 490.211 63.8041 488.684H62.3764ZM73.6389 484.791C73.3899 483.197 72.0618 481.894 69.887 481.894C67.3801 481.894 65.7864 483.704 65.7864 486.493C65.7864 489.34 67.3885 491.158 69.8953 491.158C72.0452 491.158 73.3816 489.946 73.6389 488.302H72.1946C71.929 489.315 71.0906 489.871 69.887 489.871C68.2932 489.871 67.2639 488.56 67.2639 486.493C67.2639 484.467 68.2766 483.181 69.887 483.181C71.1736 483.181 71.9622 483.903 72.1946 484.791H73.6389ZM76.5841 479.736V482.052H75.1398V483.247H76.5841V488.676C76.5841 490.386 77.3229 491.066 79.1656 491.066C79.4479 491.066 79.7218 491.033 80.004 490.983V489.78C79.7384 489.805 79.5973 489.813 79.34 489.813C78.4103 489.813 78.0118 489.365 78.0118 488.311V483.247H80.004V482.052H78.0118V479.736H76.5841ZM83.1401 494.046L84.4433 489.323H82.8579L82.0693 494.046H83.1401ZM95.9035 491.158C98.4518 491.158 100.029 489.398 100.029 486.526C100.029 483.646 98.4518 481.894 95.9035 481.894C93.3552 481.894 91.778 483.646 91.778 486.526C91.778 489.398 93.3552 491.158 95.9035 491.158ZM95.9035 489.871C94.2101 489.871 93.2556 488.643 93.2556 486.526C93.2556 484.401 94.2101 483.181 95.9035 483.181C97.5969 483.181 98.5515 484.401 98.5515 486.526C98.5515 488.643 97.5969 489.871 95.9035 489.871ZM102.343 491H103.771V485.455C103.771 484.193 104.759 483.28 106.12 483.28C106.402 483.28 106.917 483.33 107.033 483.363V481.936C106.851 481.911 106.552 481.894 106.319 481.894C105.132 481.894 104.103 482.508 103.837 483.38H103.705V482.052H102.343V491ZM113.554 484.5C113.554 485.795 114.318 486.518 115.995 486.924L117.531 487.298C118.485 487.53 118.95 487.945 118.95 488.56C118.95 489.381 118.087 489.954 116.883 489.954C115.738 489.954 115.024 489.473 114.783 488.717H113.314C113.471 490.203 114.841 491.158 116.833 491.158C118.867 491.158 120.419 490.054 120.419 488.452C120.419 487.165 119.606 486.435 117.921 486.028L116.543 485.696C115.489 485.438 114.99 485.057 114.99 484.442C114.99 483.646 115.821 483.106 116.883 483.106C117.962 483.106 118.659 483.579 118.85 484.293H120.261C120.071 482.824 118.767 481.894 116.891 481.894C114.99 481.894 113.554 483.015 113.554 484.5ZM126.411 491.158C128.959 491.158 130.536 489.398 130.536 486.526C130.536 483.646 128.959 481.894 126.411 481.894C123.862 481.894 122.285 483.646 122.285 486.526C122.285 489.398 123.862 491.158 126.411 491.158ZM126.411 489.871C124.717 489.871 123.763 488.643 123.763 486.526C123.763 484.401 124.717 483.181 126.411 483.181C128.104 483.181 129.059 484.401 129.059 486.526C129.059 488.643 128.104 489.871 126.411 489.871ZM132.851 491H134.278V485.455C134.278 484.193 135.183 483.181 136.353 483.181C137.482 483.181 138.221 483.861 138.221 484.924V491H139.649V485.248C139.649 484.11 140.479 483.181 141.724 483.181C142.986 483.181 143.608 483.828 143.608 485.148V491H145.036V484.816C145.036 482.94 144.015 481.894 142.189 481.894C140.952 481.894 139.931 482.517 139.45 483.463H139.317C138.902 482.533 138.055 481.894 136.843 481.894C135.648 481.894 134.751 482.467 134.345 483.463H134.212V482.052H132.851V491ZM151.285 483.156C152.704 483.156 153.651 484.202 153.684 485.787H148.753C148.861 484.202 149.857 483.156 151.285 483.156ZM153.642 488.684C153.269 489.473 152.489 489.896 151.335 489.896C149.816 489.896 148.828 488.775 148.753 487.007V486.941H155.186V486.393C155.186 483.612 153.717 481.894 151.302 481.894C148.845 481.894 147.267 483.72 147.267 486.534C147.267 489.365 148.82 491.158 151.302 491.158C153.261 491.158 154.655 490.211 155.07 488.684H153.642ZM162.164 484.5C162.164 485.795 162.928 486.518 164.605 486.924L166.14 487.298C167.095 487.53 167.56 487.945 167.56 488.56C167.56 489.381 166.696 489.954 165.493 489.954C164.347 489.954 163.633 489.473 163.393 488.717H161.923C162.081 490.203 163.451 491.158 165.443 491.158C167.477 491.158 169.029 490.054 169.029 488.452C169.029 487.165 168.215 486.435 166.53 486.028L165.152 485.696C164.098 485.438 163.6 485.057 163.6 484.442C163.6 483.646 164.43 483.106 165.493 483.106C166.572 483.106 167.269 483.579 167.46 484.293H168.871C168.68 482.824 167.377 481.894 165.501 481.894C163.6 481.894 162.164 483.015 162.164 484.5ZM178.581 482.052H177.154V487.348C177.154 488.917 176.29 489.854 174.713 489.854C173.286 489.854 172.688 489.107 172.688 487.497V482.052H171.26V487.846C171.26 489.962 172.306 491.158 174.315 491.158C175.684 491.158 176.639 490.593 177.087 489.597H177.22V491H178.581V482.052ZM188.748 484.791C188.499 483.197 187.171 481.894 184.996 481.894C182.489 481.894 180.896 483.704 180.896 486.493C180.896 489.34 182.498 491.158 185.005 491.158C187.155 491.158 188.491 489.946 188.748 488.302H187.304C187.038 489.315 186.2 489.871 184.996 489.871C183.403 489.871 182.373 488.56 182.373 486.493C182.373 484.467 183.386 483.181 184.996 483.181C186.283 483.181 187.072 483.903 187.304 484.791H188.748ZM198.334 484.791C198.085 483.197 196.757 481.894 194.582 481.894C192.075 481.894 190.482 483.704 190.482 486.493C190.482 489.34 192.084 491.158 194.59 491.158C196.74 491.158 198.077 489.946 198.334 488.302H196.89C196.624 489.315 195.786 489.871 194.582 489.871C192.988 489.871 191.959 488.56 191.959 486.493C191.959 484.467 192.972 483.181 194.582 483.181C195.869 483.181 196.657 483.903 196.89 484.791H198.334ZM204.085 483.156C205.504 483.156 206.451 484.202 206.484 485.787H201.553C201.661 484.202 202.657 483.156 204.085 483.156ZM206.442 488.684C206.069 489.473 205.289 489.896 204.135 489.896C202.616 489.896 201.628 488.775 201.553 487.007V486.941H207.986V486.393C207.986 483.612 206.517 481.894 204.102 481.894C201.644 481.894 200.067 483.72 200.067 486.534C200.067 489.365 201.62 491.158 204.102 491.158C206.06 491.158 207.455 490.211 207.87 488.684H206.442ZM210.093 484.5C210.093 485.795 210.857 486.518 212.533 486.924L214.069 487.298C215.024 487.53 215.489 487.945 215.489 488.56C215.489 489.381 214.625 489.954 213.422 489.954C212.276 489.954 211.562 489.473 211.322 488.717H209.852C210.01 490.203 211.38 491.158 213.372 491.158C215.406 491.158 216.958 490.054 216.958 488.452C216.958 487.165 216.144 486.435 214.459 486.028L213.081 485.696C212.027 485.438 211.529 485.057 211.529 484.442C211.529 483.646 212.359 483.106 213.422 483.106C214.501 483.106 215.198 483.579 215.389 484.293H216.8C216.609 482.824 215.306 481.894 213.43 481.894C211.529 481.894 210.093 483.015 210.093 484.5ZM218.899 484.5C218.899 485.795 219.662 486.518 221.339 486.924L222.875 487.298C223.829 487.53 224.294 487.945 224.294 488.56C224.294 489.381 223.431 489.954 222.227 489.954C221.082 489.954 220.368 489.473 220.127 488.717H218.658C218.816 490.203 220.185 491.158 222.177 491.158C224.211 491.158 225.763 490.054 225.763 488.452C225.763 487.165 224.95 486.435 223.265 486.028L221.887 485.696C220.833 485.438 220.335 485.057 220.335 484.442C220.335 483.646 221.165 483.106 222.227 483.106C223.306 483.106 224.004 483.579 224.194 484.293H225.606C225.415 482.824 224.111 481.894 222.236 481.894C220.335 481.894 218.899 483.015 218.899 484.5ZM232.949 491H234.376V485.455C234.376 484.193 235.281 483.181 236.452 483.181C237.58 483.181 238.319 483.861 238.319 484.924V491H239.747V485.248C239.747 484.11 240.577 483.181 241.822 483.181C243.084 483.181 243.706 483.828 243.706 485.148V491H245.134V484.816C245.134 482.94 244.113 481.894 242.287 481.894C241.05 481.894 240.029 482.517 239.548 483.463H239.415C239 482.533 238.153 481.894 236.941 481.894C235.746 481.894 234.849 482.467 234.443 483.463H234.31V482.052H232.949V491ZM251.383 483.156C252.802 483.156 253.749 484.202 253.782 485.787H248.851C248.959 484.202 249.955 483.156 251.383 483.156ZM253.74 488.684C253.367 489.473 252.587 489.896 251.433 489.896C249.914 489.896 248.926 488.775 248.851 487.007V486.941H255.284V486.393C255.284 483.612 253.815 481.894 251.4 481.894C248.943 481.894 247.365 483.72 247.365 486.534C247.365 489.365 248.918 491.158 251.4 491.158C253.359 491.158 254.753 490.211 255.168 488.684H253.74ZM258.196 479.736V482.052H256.752V483.247H258.196V488.676C258.196 490.386 258.935 491.066 260.778 491.066C261.06 491.066 261.334 491.033 261.616 490.983V489.78C261.351 489.805 261.21 489.813 260.952 489.813C260.023 489.813 259.624 489.365 259.624 488.311V483.247H261.616V482.052H259.624V479.736H258.196ZM263.848 491H265.275V485.455C265.275 484.193 266.263 483.28 267.624 483.28C267.907 483.28 268.421 483.33 268.538 483.363V481.936C268.355 481.911 268.056 481.894 267.824 481.894C266.637 481.894 265.607 482.508 265.342 483.38H265.209V482.052H263.848V491ZM270.428 491H271.856V482.052H270.428V491ZM271.142 480.325C271.69 480.325 272.138 479.877 272.138 479.329C272.138 478.781 271.69 478.333 271.142 478.333C270.595 478.333 270.146 478.781 270.146 479.329C270.146 479.877 270.595 480.325 271.142 480.325ZM282.056 484.791C281.807 483.197 280.479 481.894 278.304 481.894C275.797 481.894 274.204 483.704 274.204 486.493C274.204 489.34 275.806 491.158 278.313 491.158C280.463 491.158 281.799 489.946 282.056 488.302H280.612C280.346 489.315 279.508 489.871 278.304 489.871C276.711 489.871 275.681 488.56 275.681 486.493C275.681 484.467 276.694 483.181 278.304 483.181C279.591 483.181 280.38 483.903 280.612 484.791H282.056ZM284.03 484.5C284.03 485.795 284.794 486.518 286.471 486.924L288.006 487.298C288.961 487.53 289.426 487.945 289.426 488.56C289.426 489.381 288.562 489.954 287.359 489.954C286.213 489.954 285.5 489.473 285.259 488.717H283.79C283.947 490.203 285.317 491.158 287.309 491.158C289.343 491.158 290.895 490.054 290.895 488.452C290.895 487.165 290.082 486.435 288.396 486.028L287.019 485.696C285.964 485.438 285.466 485.057 285.466 484.442C285.466 483.646 286.296 483.106 287.359 483.106C288.438 483.106 289.135 483.579 289.326 484.293H290.737C290.546 482.824 289.243 481.894 287.367 481.894C285.466 481.894 284.03 483.015 284.03 484.5ZM294.114 494.046L295.417 489.323H293.832L293.043 494.046H294.114ZM306.878 491.158C309.426 491.158 311.003 489.398 311.003 486.526C311.003 483.646 309.426 481.894 306.878 481.894C304.329 481.894 302.752 483.646 302.752 486.526C302.752 489.398 304.329 491.158 306.878 491.158ZM306.878 489.871C305.184 489.871 304.23 488.643 304.23 486.526C304.23 484.401 305.184 483.181 306.878 483.181C308.571 483.181 309.525 484.401 309.525 486.526C309.525 488.643 308.571 489.871 306.878 489.871ZM313.317 491H314.745V485.455C314.745 484.193 315.733 483.28 317.094 483.28C317.376 483.28 317.891 483.33 318.007 483.363V481.936C317.825 481.911 317.526 481.894 317.293 481.894C316.106 481.894 315.077 482.508 314.811 483.38H314.679V482.052H313.317V491ZM327.492 489.904C326.454 489.904 325.682 489.373 325.682 488.46C325.682 487.563 326.28 487.09 327.641 486.999L330.048 486.841V487.663C330.048 488.941 328.961 489.904 327.492 489.904ZM327.226 491.158C328.422 491.158 329.401 490.635 329.982 489.68H330.115V491H331.476V484.874C331.476 483.015 330.256 481.894 328.073 481.894C326.164 481.894 324.753 482.84 324.562 484.276H326.006C326.205 483.571 326.952 483.164 328.023 483.164C329.359 483.164 330.048 483.77 330.048 484.874V485.688L327.467 485.845C325.383 485.97 324.205 486.891 324.205 488.493C324.205 490.128 325.491 491.158 327.226 491.158ZM346.464 484.791C346.215 483.197 344.887 481.894 342.712 481.894C340.205 481.894 338.612 483.704 338.612 486.493C338.612 489.34 340.214 491.158 342.721 491.158C344.87 491.158 346.207 489.946 346.464 488.302H345.02C344.754 489.315 343.916 489.871 342.712 489.871C341.118 489.871 340.089 488.56 340.089 486.493C340.089 484.467 341.102 483.181 342.712 483.181C343.999 483.181 344.787 483.903 345.02 484.791H346.464ZM348.729 491H350.156V485.704C350.156 484.193 351.036 483.181 352.638 483.181C353.991 483.181 354.705 483.969 354.705 485.555V491H356.133V485.206C356.133 483.106 354.938 481.894 353.045 481.894C351.675 481.894 350.737 482.475 350.289 483.463H350.156V478.499H348.729V491ZM362.382 483.156C363.801 483.156 364.748 484.202 364.781 485.787H359.85C359.958 484.202 360.954 483.156 362.382 483.156ZM364.739 488.684C364.366 489.473 363.585 489.896 362.432 489.896C360.913 489.896 359.925 488.775 359.85 487.007V486.941H366.283V486.393C366.283 483.612 364.814 481.894 362.398 481.894C359.941 481.894 358.364 483.72 358.364 486.534C358.364 489.365 359.917 491.158 362.398 491.158C364.357 491.158 365.752 490.211 366.167 488.684H364.739ZM372.167 483.156C373.586 483.156 374.533 484.202 374.566 485.787H369.635C369.743 484.202 370.739 483.156 372.167 483.156ZM374.524 488.684C374.151 489.473 373.37 489.896 372.217 489.896C370.698 489.896 369.71 488.775 369.635 487.007V486.941H376.068V486.393C376.068 483.612 374.599 481.894 372.183 481.894C369.726 481.894 368.149 483.72 368.149 486.534C368.149 489.365 369.702 491.158 372.183 491.158C374.142 491.158 375.537 490.211 375.952 488.684H374.524ZM378.175 484.5C378.175 485.795 378.939 486.518 380.615 486.924L382.151 487.298C383.106 487.53 383.571 487.945 383.571 488.56C383.571 489.381 382.707 489.954 381.504 489.954C380.358 489.954 379.644 489.473 379.404 488.717H377.934C378.092 490.203 379.462 491.158 381.454 491.158C383.488 491.158 385.04 490.054 385.04 488.452C385.04 487.165 384.226 486.435 382.541 486.028L381.163 485.696C380.109 485.438 379.611 485.057 379.611 484.442C379.611 483.646 380.441 483.106 381.504 483.106C382.583 483.106 383.28 483.579 383.471 484.293H384.882C384.691 482.824 383.388 481.894 381.512 481.894C379.611 481.894 378.175 483.015 378.175 484.5ZM387.869 494.237C389.454 494.237 390.168 493.623 390.932 491.548L394.426 482.052H392.907L390.459 489.415H390.326L387.869 482.052H386.325L389.637 491.008L389.471 491.54C389.097 492.619 388.649 493.009 387.827 493.009C387.628 493.009 387.404 493 387.23 492.967V494.188C387.429 494.221 387.678 494.237 387.869 494.237ZM401.877 479.736V482.052H400.433V483.247H401.877V488.676C401.877 490.386 402.616 491.066 404.459 491.066C404.741 491.066 405.015 491.033 405.297 490.983V489.78C405.032 489.805 404.89 489.813 404.633 489.813C403.703 489.813 403.305 489.365 403.305 488.311V483.247H405.297V482.052H403.305V479.736H401.877ZM410.284 489.904C409.247 489.904 408.475 489.373 408.475 488.46C408.475 487.563 409.072 487.09 410.434 486.999L412.841 486.841V487.663C412.841 488.941 411.754 489.904 410.284 489.904ZM410.019 491.158C411.214 491.158 412.194 490.635 412.775 489.68H412.907V491H414.269V484.874C414.269 483.015 413.048 481.894 410.865 481.894C408.956 481.894 407.545 482.84 407.354 484.276H408.798C408.998 483.571 409.745 483.164 410.816 483.164C412.152 483.164 412.841 483.77 412.841 484.874V485.688L410.259 485.845C408.176 485.97 406.997 486.891 406.997 488.493C406.997 490.128 408.284 491.158 410.019 491.158ZM420.601 489.605C418.94 489.605 418.011 488.344 418.011 486.393C418.011 484.442 418.94 483.181 420.601 483.181C422.252 483.181 423.257 484.442 423.257 486.393C423.257 488.344 422.261 489.605 420.601 489.605ZM420.667 494.437C423.107 494.437 424.651 493.158 424.651 491.158V482.052H423.29V483.471H423.157C422.643 482.508 421.539 481.894 420.285 481.894C417.986 481.894 416.533 483.712 416.533 486.393C416.533 489.074 417.969 490.867 420.285 490.867C421.514 490.867 422.526 490.311 423.091 489.323H423.224V491.083C423.224 492.403 422.269 493.191 420.667 493.191C419.38 493.191 418.583 492.718 418.426 491.988H416.915C417.131 493.465 418.509 494.437 420.667 494.437ZM427.497 491H428.925V478.499H427.497V491ZM431.803 491H433.231V482.052H431.803V491ZM432.517 480.325C433.065 480.325 433.513 479.877 433.513 479.329C433.513 478.781 433.065 478.333 432.517 478.333C431.969 478.333 431.521 478.781 431.521 479.329C431.521 479.877 431.969 480.325 432.517 480.325ZM436.027 491H437.455V485.704C437.455 484.135 438.376 483.181 439.804 483.181C441.232 483.181 441.912 483.944 441.912 485.555V491H443.34V485.206C443.34 483.081 442.219 481.894 440.211 481.894C438.841 481.894 437.969 482.475 437.521 483.463H437.388V482.052H436.027V491ZM449.597 483.156C451.017 483.156 451.963 484.202 451.996 485.787H447.065C447.173 484.202 448.169 483.156 449.597 483.156ZM451.955 488.684C451.581 489.473 450.801 489.896 449.647 489.896C448.128 489.896 447.14 488.775 447.065 487.007V486.941H453.498V486.393C453.498 483.612 452.029 481.894 449.614 481.894C447.157 481.894 445.58 483.72 445.58 486.534C445.58 489.365 447.132 491.158 449.614 491.158C451.573 491.158 452.967 490.211 453.382 488.684H451.955ZM456.991 491.083C457.589 491.083 458.071 490.593 458.071 490.004C458.071 489.406 457.589 488.925 456.991 488.925C456.402 488.925 455.912 489.406 455.912 490.004C455.912 490.593 456.402 491.083 456.991 491.083Z" fill="black" fill-opacity="0.6"/>
<g filter="url(#filter2_b_136_1416)">
<path d="M24 521C24 516.582 27.5817 513 32 513H106C110.418 513 114 516.582 114 521V533C114 537.418 110.418 541 106 541H32C27.5817 541 24 537.418 24 533V521Z" fill="#F5F5F5" fill-opacity="0.8"/>
<path d="M45.6152 531V522.545H44.0801L41.3848 529.014H41.2852L38.5957 522.545H37.0605V531H38.2793V524.895H38.3613L40.8398 530.801H41.8359L44.3145 524.895H44.3965V531H45.6152ZM50.2852 531.123C52.1484 531.123 53.291 529.875 53.291 527.807C53.291 525.75 52.1426 524.496 50.2852 524.496C48.4219 524.496 47.2734 525.75 47.2734 527.807C47.2734 529.875 48.416 531.123 50.2852 531.123ZM50.2852 530.004C49.1895 530.004 48.5742 529.201 48.5742 527.807C48.5742 526.424 49.1895 525.615 50.2852 525.615C51.375 525.615 51.9961 526.424 51.9961 527.807C51.9961 529.195 51.375 530.004 50.2852 530.004ZM58.1895 531.105C59.8008 531.105 60.8262 529.828 60.8262 527.807C60.8262 525.779 59.8066 524.514 58.1895 524.514C57.3164 524.514 56.5664 524.936 56.2266 525.633H56.127V522.129H54.8672V531H56.0801V529.992H56.1738C56.5547 530.695 57.2988 531.105 58.1895 531.105ZM57.8262 525.645C58.8926 525.645 59.5312 526.465 59.5312 527.807C59.5312 529.16 58.8926 529.975 57.8262 529.975C56.7656 529.975 56.1094 529.148 56.1035 527.812C56.1094 526.477 56.7715 525.645 57.8262 525.645ZM62.3672 531H63.6211V524.619H62.3672V531ZM62.9941 523.512C63.4336 523.512 63.791 523.143 63.791 522.691C63.791 522.234 63.4336 521.865 62.9941 521.865C62.5547 521.865 62.1973 522.234 62.1973 522.691C62.1973 523.143 62.5547 523.512 62.9941 523.512ZM65.5312 531H66.791V522.129H65.5312V531ZM71.3027 525.568C72.2344 525.568 72.8438 526.219 72.873 527.221H69.6504C69.7207 526.225 70.3711 525.568 71.3027 525.568ZM72.8672 529.277C72.6328 529.775 72.1113 530.051 71.3496 530.051C70.3418 530.051 69.6914 529.342 69.6504 528.223V528.152H74.1562V527.713C74.1562 525.709 73.084 524.496 71.3086 524.496C69.5098 524.496 68.3672 525.791 68.3672 527.83C68.3672 529.869 69.4863 531.123 71.3145 531.123C72.7734 531.123 73.8047 530.414 74.0801 529.277H72.8672ZM84.5684 531H85.9629L82.9102 522.545H81.498L78.4453 531H79.793L80.5723 528.756H83.7949L84.5684 531ZM82.1367 524.08H82.2363L83.4609 527.654H80.9062L82.1367 524.08ZM90.6035 524.514C89.7363 524.514 88.9863 524.947 88.5996 525.674H88.5059V524.619H87.293V533.121H88.5527V530.033H88.6523C88.9863 530.707 89.707 531.105 90.6152 531.105C92.2266 531.105 93.252 529.834 93.252 527.807C93.252 525.779 92.2266 524.514 90.6035 524.514ZM90.2461 529.975C89.1914 529.975 88.5293 529.143 88.5293 527.812C88.5293 526.477 89.1914 525.645 90.252 525.645C91.3184 525.645 91.957 526.459 91.957 527.807C91.957 529.16 91.3184 529.975 90.2461 529.975ZM98.0801 524.514C97.2129 524.514 96.4629 524.947 96.0762 525.674H95.9824V524.619H94.7695V533.121H96.0293V530.033H96.1289C96.4629 530.707 97.1836 531.105 98.0918 531.105C99.7031 531.105 100.729 529.834 100.729 527.807C100.729 525.779 99.7031 524.514 98.0801 524.514ZM97.7227 529.975C96.668 529.975 96.0059 529.143 96.0059 527.812C96.0059 526.477 96.668 525.645 97.7285 525.645C98.7949 525.645 99.4336 526.459 99.4336 527.807C99.4336 529.16 98.7949 529.975 97.7227 529.975Z" fill="black" fill-opacity="0.87"/>
</g>
<rect x="1" y="1" width="539" height="563" rx="31" stroke="#E5E7EB" stroke-width="2"/>
</g>
<defs>
<filter id="filter0_b_136_1416" x="-100" y="-100" width="741" height="765" filterUnits="userSpaceOnUse" color-interpolation-filters="sRGB">
<feFlood flood-opacity="0" result="BackgroundImageFix"/>
<feGaussianBlur in="BackgroundImage" stdDeviation="50"/>
<feComposite in2="SourceAlpha" operator="in" result="effect1_backgroundBlur_136_1416"/>
<feBlend mode="normal" in="SourceGraphic" in2="effect1_backgroundBlur_136_1416" result="shape"/>
</filter>
<filter id="filter1_b_136_1416" x="-126" y="-126" width="793" height="652" filterUnits="userSpaceOnUse" color-interpolation-filters="sRGB">
<feFlood flood-opacity="0" result="BackgroundImageFix"/>
<feGaussianBlur in="BackgroundImage" stdDeviation="75"/>
<feComposite in2="SourceAlpha" operator="in" result="effect1_backgroundBlur_136_1416"/>
<feBlend mode="normal" in="SourceGraphic" in2="effect1_backgroundBlur_136_1416" result="shape"/>
</filter>
<filter id="filter2_b_136_1416" x="-76" y="413" width="290" height="228" filterUnits="userSpaceOnUse" color-interpolation-filters="sRGB">
<feFlood flood-opacity="0" result="BackgroundImageFix"/>
<feGaussianBlur in="BackgroundImage" stdDeviation="50"/>
<feComposite in2="SourceAlpha" operator="in" result="effect1_backgroundBlur_136_1416"/>
<feBlend mode="normal" in="SourceGraphic" in2="effect1_backgroundBlur_136_1416" result="shape"/>
</filter>
</defs>
</svg>
